<svg width="42" height="42" viewBox="0 0 42 42" fill="none" xmlns="http://www.w3.org/2000/svg">
<path opacity="0.4" fill-rule="evenodd" clip-rule="evenodd" d="M41.6667 20.8333C41.6667 32.3396 32.3396 41.6667 20.8333 41.6667C9.32708 41.6667 0 32.3396 0 20.8333C0 9.32708 9.32708 0 20.8333 0C32.3396 0 41.6667 9.32708 41.6667 20.8333ZM17.1042 29.2917C17.4167 29.6042 17.8125 29.75 18.2083 29.75C18.6042 29.75 19 29.6042 19.3125 29.2917L26.6667 21.9375C27.2708 21.3333 27.2708 20.3333 26.6667 19.7292L19.3125 12.375C18.7083 11.7708 17.7083 11.7708 17.1042 12.375C16.8136 12.669 16.6506 13.0658 16.6506 13.4792C16.6506 13.8926 16.8136 14.2893 17.1042 14.5833L23.3542 20.8333L17.1042 27.0833C16.8136 27.3774 16.6506 27.7741 16.6506 28.1875C16.6506 28.6009 16.8136 28.9976 17.1042 29.2917Z" fill="black"/>
</svg>
