<svg width="13" height="22" viewBox="0 0 13 22" fill="none" xmlns="http://www.w3.org/2000/svg">
<path d="M1.86672 21.3647C1.39236 21.3647 0.918007 21.1899 0.543516 20.8154C0.195289 20.4631 0 19.9877 0 19.4922C0 18.9968 0.195289 18.5214 0.543516 18.169L8.03333 10.6792L0.543516 3.18941C0.195289 2.83705 0 2.36162 0 1.86621C0 1.37081 0.195289 0.895377 0.543516 0.543012C1.26753 -0.181004 2.4659 -0.181004 3.18992 0.543012L12.0029 9.35603C12.727 10.08 12.727 11.2784 12.0029 12.0024L3.18992 20.8154C2.81543 21.1899 2.34107 21.3647 1.86672 21.3647Z" fill="black" fill-opacity="0.45"/>
</svg>
