<svg width="90" height="25" viewBox="0 0 90 25" fill="none" xmlns="http://www.w3.org/2000/svg">
<path d="M11.1139 24.5615C10.8447 24.5615 10.5755 24.4623 10.363 24.2498L1.12637 15.0131C0.404869 14.2861 0 13.3033 0 12.279C0 11.2547 0.404869 10.2719 1.12637 9.54479L10.363 0.308125C10.7739 -0.102708 11.4539 -0.102708 11.8647 0.308125C12.2755 0.718958 12.2755 1.39896 11.8647 1.80979L2.62804 11.0465C1.94804 11.7265 1.94804 12.8315 2.62804 13.5115L11.8647 22.7481C12.2755 23.159 12.2755 23.839 11.8647 24.2498C11.6522 24.4481 11.383 24.5615 11.1139 24.5615Z" fill="black"/>
<path d="M21.8517 16V8.95H24.6717C25.4183 8.95 25.995 9.11 26.4017 9.43C26.8083 9.75 27.0117 10.2033 27.0117 10.79C27.0117 11.23 26.8783 11.5967 26.6117 11.89C26.3517 12.1833 25.9883 12.3767 25.5217 12.47V12.33C26.0417 12.39 26.4483 12.57 26.7417 12.87C27.0417 13.1633 27.1917 13.56 27.1917 14.06C27.1917 14.6867 26.9817 15.1667 26.5617 15.5C26.1483 15.8333 25.5617 16 24.8017 16H21.8517ZM22.6617 15.33H24.7217C25.2283 15.33 25.6283 15.2333 25.9217 15.04C26.2217 14.84 26.3717 14.51 26.3717 14.05C26.3717 13.5833 26.2217 13.2533 25.9217 13.06C25.6283 12.86 25.2283 12.76 24.7217 12.76H22.6617V15.33ZM22.6617 12.1H24.5517C25.0983 12.1 25.5083 11.9933 25.7817 11.78C26.055 11.5667 26.1917 11.26 26.1917 10.86C26.1917 10.4467 26.055 10.1367 25.7817 9.93C25.5083 9.71667 25.0983 9.61 24.5517 9.61H22.6617V12.1ZM30.4686 16.09C30.0219 16.09 29.6319 15.9867 29.2986 15.78C28.9652 15.5667 28.7052 15.2667 28.5186 14.88C28.3386 14.4933 28.2486 14.03 28.2486 13.49C28.2486 12.9433 28.3386 12.4767 28.5186 12.09C28.7052 11.7033 28.9652 11.4067 29.2986 11.2C29.6319 10.9933 30.0219 10.89 30.4686 10.89C30.9219 10.89 31.3119 11.0067 31.6386 11.24C31.9719 11.4667 32.1919 11.7767 32.2986 12.17H32.1786L32.2886 10.98H33.0686C33.0486 11.1733 33.0286 11.37 33.0086 11.57C32.9952 11.7633 32.9886 11.9533 32.9886 12.14V16H32.1786V14.82H32.2886C32.1819 15.2133 31.9619 15.5233 31.6286 15.75C31.2952 15.9767 30.9086 16.09 30.4686 16.09ZM30.6286 15.43C31.1086 15.43 31.4886 15.2667 31.7686 14.94C32.0486 14.6067 32.1886 14.1233 32.1886 13.49C32.1886 12.85 32.0486 12.3667 31.7686 12.04C31.4886 11.7067 31.1086 11.54 30.6286 11.54C30.1552 11.54 29.7752 11.7067 29.4886 12.04C29.2086 12.3667 29.0686 12.85 29.0686 13.49C29.0686 14.1233 29.2086 14.6067 29.4886 14.94C29.7752 15.2667 30.1552 15.43 30.6286 15.43ZM36.6646 16.09C36.1713 16.09 35.7413 15.9833 35.3746 15.77C35.0146 15.5567 34.7346 15.2533 34.5346 14.86C34.3413 14.4667 34.2446 14 34.2446 13.46C34.2446 12.9133 34.3446 12.45 34.5446 12.07C34.7446 11.6833 35.0246 11.39 35.3846 11.19C35.7513 10.99 36.178 10.89 36.6646 10.89C36.9846 10.89 37.2946 10.9467 37.5946 11.06C37.9013 11.1733 38.1546 11.3333 38.3546 11.54L38.0646 12.12C37.8646 11.9267 37.6446 11.7833 37.4046 11.69C37.1713 11.5967 36.9413 11.55 36.7146 11.55C36.1946 11.55 35.7913 11.7133 35.5046 12.04C35.218 12.3667 35.0746 12.8433 35.0746 13.47C35.0746 14.09 35.218 14.57 35.5046 14.91C35.7913 15.25 36.1946 15.42 36.7146 15.42C36.9346 15.42 37.1613 15.3767 37.3946 15.29C37.6346 15.2033 37.858 15.06 38.0646 14.86L38.3546 15.43C38.148 15.6433 37.8913 15.8067 37.5846 15.92C37.278 16.0333 36.9713 16.09 36.6646 16.09ZM39.5058 16V8.64H40.3158V13.21H40.3358L42.6658 10.98H43.6858L40.9358 13.6L40.9558 13.19L43.9458 16H42.8958L40.3358 13.64H40.3158V16H39.5058ZM49.0397 16.09C48.5464 16.09 48.1697 15.95 47.9097 15.67C47.6497 15.3833 47.5197 14.9533 47.5197 14.38V11.61H46.5397V10.98H47.5197V9.61L48.3297 9.38V10.98H49.7697V11.61H48.3297V14.29C48.3297 14.69 48.3964 14.9767 48.5297 15.15C48.6697 15.3167 48.8764 15.4 49.1497 15.4C49.2764 15.4 49.3897 15.39 49.4897 15.37C49.5897 15.3433 49.6797 15.3133 49.7597 15.28V15.96C49.6664 16 49.5531 16.03 49.4197 16.05C49.2931 16.0767 49.1664 16.09 49.0397 16.09ZM52.767 16.09C52.287 16.09 51.867 15.9867 51.507 15.78C51.1537 15.5667 50.8803 15.2667 50.687 14.88C50.4937 14.4867 50.397 14.0233 50.397 13.49C50.397 12.95 50.4937 12.4867 50.687 12.1C50.8803 11.7133 51.1537 11.4167 51.507 11.21C51.867 10.9967 52.287 10.89 52.767 10.89C53.2537 10.89 53.6737 10.9967 54.027 11.21C54.387 11.4167 54.6637 11.7133 54.857 12.1C55.057 12.4867 55.157 12.95 55.157 13.49C55.157 14.0233 55.057 14.4867 54.857 14.88C54.6637 15.2667 54.387 15.5667 54.027 15.78C53.6737 15.9867 53.2537 16.09 52.767 16.09ZM52.767 15.43C53.247 15.43 53.627 15.2667 53.907 14.94C54.187 14.6067 54.327 14.1233 54.327 13.49C54.327 12.85 54.1837 12.3667 53.897 12.04C53.617 11.7067 53.2403 11.54 52.767 11.54C52.2937 11.54 51.917 11.7067 51.637 12.04C51.357 12.3667 51.217 12.85 51.217 13.49C51.217 14.1233 51.357 14.6067 51.637 14.94C51.917 15.2667 52.2937 15.43 52.767 15.43ZM59.0273 16V8.64H59.8373V12.09H59.7073C59.8473 11.6967 60.0806 11.4 60.4073 11.2C60.7406 10.9933 61.124 10.89 61.5573 10.89C62.1573 10.89 62.604 11.0533 62.8973 11.38C63.1906 11.7 63.3373 12.1867 63.3373 12.84V16H62.5273V12.89C62.5273 12.4233 62.434 12.0833 62.2473 11.87C62.0673 11.6567 61.774 11.55 61.3673 11.55C60.9006 11.55 60.5273 11.6933 60.2473 11.98C59.974 12.2667 59.8373 12.6433 59.8373 13.11V16H59.0273ZM66.9467 16.09C66.4667 16.09 66.0467 15.9867 65.6867 15.78C65.3333 15.5667 65.06 15.2667 64.8667 14.88C64.6733 14.4867 64.5767 14.0233 64.5767 13.49C64.5767 12.95 64.6733 12.4867 64.8667 12.1C65.06 11.7133 65.3333 11.4167 65.6867 11.21C66.0467 10.9967 66.4667 10.89 66.9467 10.89C67.4333 10.89 67.8533 10.9967 68.2067 11.21C68.5667 11.4167 68.8433 11.7133 69.0367 12.1C69.2367 12.4867 69.3367 12.95 69.3367 13.49C69.3367 14.0233 69.2367 14.4867 69.0367 14.88C68.8433 15.2667 68.5667 15.5667 68.2067 15.78C67.8533 15.9867 67.4333 16.09 66.9467 16.09ZM66.9467 15.43C67.4267 15.43 67.8067 15.2667 68.0867 14.94C68.3667 14.6067 68.5067 14.1233 68.5067 13.49C68.5067 12.85 68.3633 12.3667 68.0767 12.04C67.7967 11.7067 67.42 11.54 66.9467 11.54C66.4733 11.54 66.0967 11.7067 65.8167 12.04C65.5367 12.3667 65.3967 12.85 65.3967 13.49C65.3967 14.1233 65.5367 14.6067 65.8167 14.94C66.0967 15.2667 66.4733 15.43 66.9467 15.43ZM70.5996 16V12.14C70.5996 11.9533 70.5896 11.7633 70.5696 11.57C70.5562 11.37 70.5396 11.1733 70.5196 10.98H71.2996L71.3996 12.08H71.2796C71.4129 11.7 71.6229 11.4067 71.9096 11.2C72.2029 10.9933 72.5562 10.89 72.9696 10.89C73.3896 10.89 73.7296 10.99 73.9896 11.19C74.2562 11.39 74.4362 11.7 74.5296 12.12H74.3796C74.5062 11.74 74.7296 11.44 75.0496 11.22C75.3696 11 75.7429 10.89 76.1696 10.89C76.7229 10.89 77.1396 11.05 77.4196 11.37C77.6996 11.6833 77.8396 12.18 77.8396 12.86V16H77.0296V12.91C77.0296 12.4367 76.9462 12.0933 76.7796 11.88C76.6129 11.66 76.3462 11.55 75.9796 11.55C75.5596 11.55 75.2262 11.6967 74.9796 11.99C74.7396 12.2767 74.6196 12.6633 74.6196 13.15V16H73.8096V12.91C73.8096 12.4367 73.7262 12.0933 73.5596 11.88C73.3929 11.66 73.1262 11.55 72.7596 11.55C72.3396 11.55 72.0096 11.6967 71.7696 11.99C71.5296 12.2767 71.4096 12.6633 71.4096 13.15V16H70.5996ZM81.6089 16.09C80.8222 16.09 80.2022 15.8633 79.7489 15.41C79.2955 14.95 79.0689 14.3133 79.0689 13.5C79.0689 12.9733 79.1689 12.5167 79.3689 12.13C79.5689 11.7367 79.8489 11.4333 80.2089 11.22C80.5689 11 80.9822 10.89 81.4489 10.89C81.9089 10.89 82.2955 10.9867 82.6089 11.18C82.9222 11.3733 83.1622 11.65 83.3289 12.01C83.4955 12.3633 83.5789 12.7833 83.5789 13.27V13.57H79.6889V13.06H83.0489L82.8789 13.19C82.8789 12.6567 82.7589 12.24 82.5189 11.94C82.2789 11.64 81.9222 11.49 81.4489 11.49C80.9489 11.49 80.5589 11.6667 80.2789 12.02C79.9989 12.3667 79.8589 12.8367 79.8589 13.43V13.52C79.8589 14.1467 80.0122 14.6233 80.3189 14.95C80.6322 15.27 81.0689 15.43 81.6289 15.43C81.9289 15.43 82.2089 15.3867 82.4689 15.3C82.7355 15.2067 82.9889 15.0567 83.2289 14.85L83.5089 15.42C83.2889 15.6333 83.0089 15.8 82.6689 15.92C82.3355 16.0333 81.9822 16.09 81.6089 16.09Z" fill="black"/>
</svg>
