<svg width="60" height="60" viewBox="0 0 60 60" fill="none" xmlns="http://www.w3.org/2000/svg">
<g filter="url(#filter0_d_207_10380)">
<rect x="4" width="52" height="52" rx="11" fill="black"/>
</g>
<line x1="13.5" y1="46.5" x2="45.5" y2="46.5" stroke="white" stroke-width="3" stroke-linecap="round"/>
<g filter="url(#filter1_i_207_10380)">
<path d="M44.6892 16.5175L33.4199 7.34753C31.2177 5.56253 27.7767 5.54503 25.5917 7.33003L14.3225 16.5175C12.7052 17.83 11.7245 20.455 12.0686 22.52L14.2364 35.715C14.7354 38.6725 17.4366 41 20.3786 41H38.6158C41.5235 41 44.2762 38.62 44.7752 35.6975L46.943 22.5025C47.2527 20.455 46.272 17.83 44.6892 16.5175ZM30.7876 34C30.7876 34.7175 30.2026 35.3125 29.4972 35.3125C28.7918 35.3125 28.2068 34.7175 28.2068 34V28.75C28.2068 28.0325 28.7918 27.4375 29.4972 27.4375C30.2026 27.4375 30.7876 28.0325 30.7876 28.75V34Z" fill="white"/>
</g>
<defs>
<filter id="filter0_d_207_10380" x="0" y="0" width="60" height="60" filterUnits="userSpaceOnUse" color-interpolation-filters="sRGB">
<feFlood flood-opacity="0" result="BackgroundImageFix"/>
<feColorMatrix in="SourceAlpha" type="matrix" values="0 0 0 0 0 0 0 0 0 0 0 0 0 0 0 0 0 0 127 0" result="hardAlpha"/>
<feOffset dy="4"/>
<feGaussianBlur stdDeviation="2"/>
<feComposite in2="hardAlpha" operator="out"/>
<feColorMatrix type="matrix" values="0 0 0 0 0 0 0 0 0 0 0 0 0 0 0 0 0 0 0.25 0"/>
<feBlend mode="normal" in2="BackgroundImageFix" result="effect1_dropShadow_207_10380"/>
<feBlend mode="normal" in="SourceGraphic" in2="effect1_dropShadow_207_10380" result="shape"/>
</filter>
<filter id="filter1_i_207_10380" x="12" y="6" width="35" height="39" filterUnits="userSpaceOnUse" color-interpolation-filters="sRGB">
<feFlood flood-opacity="0" result="BackgroundImageFix"/>
<feBlend mode="normal" in="SourceGraphic" in2="BackgroundImageFix" result="shape"/>
<feColorMatrix in="SourceAlpha" type="matrix" values="0 0 0 0 0 0 0 0 0 0 0 0 0 0 0 0 0 0 127 0" result="hardAlpha"/>
<feOffset dy="4"/>
<feGaussianBlur stdDeviation="2"/>
<feComposite in2="hardAlpha" operator="arithmetic" k2="-1" k3="1"/>
<feColorMatrix type="matrix" values="0 0 0 0 0 0 0 0 0 0 0 0 0 0 0 0 0 0 0.25 0"/>
<feBlend mode="normal" in2="shape" result="effect1_innerShadow_207_10380"/>
</filter>
</defs>
</svg>
