<?xml version="1.0" encoding="UTF-8" standalone="no"?>
<!DOCTYPE svg PUBLIC "-//W3C//DTD SVG 1.1//EN" "http://www.w3.org/Graphics/SVG/1.1/DTD/svg11.dtd">
<svg xmlns="http://www.w3.org/2000/svg" xmlns:xlink="http://www.w3.org/1999/xlink" version="1.1" width="341.377pt" height="83.4548pt" viewBox="0 0 341.377 83.4548">
<g enable-background="new">
<g id="Layer-1" data-name="Layer 1">
<clipPath id="cp0">
<path transform="matrix(1,0,0,-1,0,83.4548)" d="M 0 83.455 L 341.377 83.455 L 341.377 0 L 0 0 Z "/>
</clipPath>
<g clip-path="url(#cp0)">
<path transform="matrix(1,0,0,-1,265.1356,48.719305)" d="M 0 0 L 5.719 0 L 5.719 1.906 C 5.719 3 5.121 3.508 4.128 3.508 L 1.015 3.508 C .835 3.767 .665 4.151 .643 4.613 L 2.402 8.042 L 3.756 8.042 L 1.884 4.624 L 4.015 4.624 C 5.888 4.624 6.846 3.688 6.846 1.748 L 6.846 -1.105 L 0 -1.105 Z M .234 0 L .234 -1.105 L -3.544 -1.105 L -3.544 0 L -2.247 0 L -2.247 8.042 L -1.142 8.042 L -1.142 0 Z M -4.044 -3.079 C -4.044 -3.542 -4.405 -3.812 -4.834 -3.812 C -5.251 -3.812 -5.623 -3.542 -5.623 -3.079 C -5.623 -2.651 -5.274 -2.357 -4.834 -2.357 C -4.383 -2.357 -4.044 -2.651 -4.044 -3.079 M -6.131 -3.079 C -6.131 -3.542 -6.492 -3.812 -6.92 -3.812 C -7.338 -3.812 -7.71 -3.542 -7.71 -3.079 C -7.71 -2.651 -7.36 -2.357 -6.92 -2.357 C -6.469 -2.357 -6.131 -2.651 -6.131 -3.079 M -3.322 -1.105 L -8.251 -1.105 L -8.251 0 L -6.447 0 L -6.447 5.166 L -5.341 5.166 L -5.341 0 L -3.322 0 Z M -10.918 7.365 C -10.918 7.794 -10.569 8.098 -10.129 8.098 C -9.678 8.098 -9.339 7.794 -9.339 7.365 C -9.339 6.903 -9.7 6.632 -10.129 6.632 C -10.546 6.632 -10.918 6.903 -10.918 7.365 M -13.005 7.365 C -13.005 7.794 -12.655 8.098 -12.215 8.098 C -11.764 8.098 -11.426 7.794 -11.426 7.365 C -11.426 6.903 -11.787 6.632 -12.215 6.632 C -12.633 6.632 -13.005 6.903 -13.005 7.365 M -10.512 4.072 L -11.268 4.072 C -12.644 4.072 -13.603 3.282 -13.603 2.019 L -13.603 2.008 C -13.603 .79 -12.633 0 -11.268 0 L -10.512 0 Z M -8.031 0 L -8.031 -1.105 L -10.512 -1.105 L -11.189 -1.105 C -13.264 -1.105 -14.652 .135 -14.652 2.008 L -14.652 2.019 C -14.652 3.914 -13.219 5.166 -11.042 5.166 L -10.512 5.166 L -10.512 5.73 L -9.407 5.73 L -9.407 0 Z M -19.381 8.042 L -18.276001 8.042 L -18.276001 -1.1050005 L -19.381 -1.1050005 Z M -21.347 8.042 L -21.347 -1.105 L -24.347 -1.105 L -24.347 0 L -22.452 0 L -22.452 8.042 Z M -25.921 3.395 C -26.597 3.936 -27.331 4.23 -28.052 4.23 C -28.752 4.23 -29.485 3.948 -30.184 3.406 L -28.864 0 L -27.285 0 Z M -23.981 -1.105 L -31.865 -1.105 L -31.865 0 L -29.902 0 L -31.414 3.959 C -30.387 4.839 -29.259 5.335 -28.052 5.335 C -26.834 5.335 -25.751 4.839 -24.691 3.948 L -26.191 0 L -23.981 0 Z M -31.63 0 L -31.63 -1.105 L -35.409 -1.105 L -35.409 0 L -34.112 0 L -34.112 8.042 L -33.007 8.042 L -33.007 0 Z M -37.67 0 L -37.67 4.072 L -38.426 4.072 C -39.802 4.072 -40.76 3.282 -40.76 2.019 L -40.76 2.008 C -40.76 .79 -39.79 0 -38.426 0 Z M -35.189 -1.105 L -36.565 -1.105 C -36.598 -2.955 -37.478 -3.587 -39.102 -3.587 C -39.711 -3.587 -40.253 -3.508 -40.896 -3.282 L -41.099 -2.109 C -40.388 -2.357 -39.79 -2.47 -39.148 -2.47 C -38.268 -2.47 -37.67 -2.154 -37.67 -1.207 L -37.67 -1.105 L -38.347 -1.105 C -40.422 -1.105 -41.809 .135 -41.809 2.008 L -41.809 2.019 C -41.809 3.914 -40.377 5.166 -38.2 5.166 L -36.565 5.166 L -36.565 0 L -35.189 0 Z M -44.016 1.026 C -44.016 2.38 -44.806 3.294 -46.001 3.294 L -46.013 3.294 C -47.219 3.294 -48.02 2.38 -48.02 1.026 L -48.02 1.015 C -48.02 -.327 -47.219 -1.218 -46.013 -1.218 L -46.001 -1.218 C -44.806 -1.218 -44.016 -.316 -44.016 1.015 Z M -42.911 1.004 L -42.911 .993 C -42.911 -.993 -44.152 -2.335 -46.001 -2.335 L -46.013 -2.335 C -47.704 -2.335 -48.889 -1.252 -49.103 .429 C -50.163 .35 -50.682 -.429 -50.682 -1.681 L -50.682 -3.587 L -51.788 -3.587 L -51.788 -1.511 C -51.788 .395 -50.806 1.466 -49.103 1.534 C -48.911 3.271 -47.716 4.399 -46.013 4.399 L -46.001 4.399 C -44.152 4.399 -42.911 3.045 -42.911 1.004 M -56.529 8.042 L -55.424 8.042 L -55.424 -1.1050005 L -56.529 -1.1050005 Z M -58.494 8.042 L -58.494 -1.105 L -61.494 -1.105 L -61.494 0 L -59.599 0 L -59.599 8.042 Z M -65.72 4.061 L -68.585 4.061 L -68.585 0 L -63.611 0 L -63.611 2.188 C -63.599 3.497 -64.445 4.061 -65.72 4.061 M -61.129 0 L -61.129 -1.105 L -70.84 -1.105 L -70.84 0 L -69.69 0 L -69.69 5.775 L -68.585 5.775 L -68.585 5.166 L -65.81 5.166 C -63.644 5.166 -62.483 4.049 -62.494 2.008 L -62.505 0 Z M -70.62 0 L -70.62 -1.105 L -77.658 -1.105 L -77.658 0 L -73.068 0 C -72.91 .643 -72.808 1.432 -72.808 2.03 C -72.808 3.395 -73.586 4.23 -74.85 4.23 C -75.493 4.23 -75.955 4.094 -76.654 3.677 L -77.049 4.692 C -76.237 5.121 -75.549 5.335 -74.771 5.335 C -72.819 5.335 -71.759 4.072 -71.759 1.974 C -71.759 1.365 -71.849 .654 -71.974 0 Z M -78.158 -3.079 C -78.158 -3.542 -78.519 -3.812 -78.948 -3.812 C -79.365 -3.812 -79.737 -3.542 -79.737 -3.079 C -79.737 -2.651 -79.388 -2.357 -78.948 -2.357 C -78.496 -2.357 -78.158 -2.651 -78.158 -3.079 M -80.245 -3.079 C -80.245 -3.542 -80.606 -3.812 -81.034 -3.812 C -81.452 -3.812 -81.824 -3.542 -81.824 -3.079 C -81.824 -2.651 -81.474 -2.357 -81.034 -2.357 C -80.583 -2.357 -80.245 -2.651 -80.245 -3.079 M -77.436 -1.105 L -82.365 -1.105 L -82.365 0 L -80.561 0 L -80.561 5.166 L -79.455 5.166 L -79.455 0 L -77.436 0 Z M -85.032 7.365 C -85.032 7.794 -84.683 8.098 -84.243 8.098 C -83.792 8.098 -83.453 7.794 -83.453 7.365 C -83.453 6.903 -83.814 6.632 -84.243 6.632 C -84.66 6.632 -85.032 6.903 -85.032 7.365 M -87.119 7.365 C -87.119 7.794 -86.769 8.098 -86.329 8.098 C -85.878 8.098 -85.54 7.794 -85.54 7.365 C -85.54 6.903 -85.901 6.632 -86.329 6.632 C -86.747 6.632 -87.119 6.903 -87.119 7.365 M -84.626 4.072 L -85.382 4.072 C -86.758 4.072 -87.717 3.282 -87.717 2.019 L -87.717 2.008 C -87.717 .79 -86.747 0 -85.382 0 L -84.626 0 Z M -82.145 0 L -82.145 -1.105 L -84.626 -1.105 L -85.303 -1.105 C -87.378 -1.105 -88.766 .135 -88.766 2.008 L -88.766 2.019 C -88.766 3.914 -87.333 5.166 -85.156 5.166 L -84.626 5.166 L -84.626 5.73 L -83.521 5.73 L -83.521 0 Z "/>
<path transform="matrix(1,0,0,-1,177.7089,63.022607)" d="M 0 0 C 0 -1.746 1.146 -2.573 2.482 -2.573 C 3.21 -2.573 3.838 -2.355 4.365 -2.019 L 4.874 -3.183 C 4.247 -3.564 3.355 -3.811 2.428 -3.811 C .091 -3.811 -1.392 -2.183 -1.392 0 C -1.392 2.183 .091 3.811 2.428 3.811 C 3.355 3.811 4.247 3.556 4.874 3.174 L 4.365 2.02 C 3.838 2.347 3.21 2.564 2.482 2.564 C 1.146 2.564 0 1.746 0 0 "/>
<path transform="matrix(1,0,0,-1,187.1181,60.458208)" d="M 0 0 C -1.392 0 -2.438 -1.019 -2.438 -2.564 C -2.438 -4.11 -1.392 -5.129 0 -5.129 C 1.4 -5.129 2.446 -4.11 2.446 -2.564 C 2.446 -1.019 1.4 0 0 0 M 0 -6.375 C -2.247 -6.375 -3.829 -4.72 -3.829 -2.564 C -3.829 -.418 -2.247 1.246 0 1.246 C 2.246 1.246 3.828 -.418 3.828 -2.564 C 3.828 -4.72 2.246 -6.375 0 -6.375 "/>
<path transform="matrix(1,0,0,-1,193.871,65.505008)" d="M 0 0 L 3.392 0 L 3.392 -1.219 L -1.319 -1.219 L -1.319 6.156 L 0 6.156 Z "/>
<path transform="matrix(1,0,0,-1,199.6786,65.505008)" d="M 0 0 L 3.392 0 L 3.392 -1.219 L -1.319 -1.219 L -1.319 6.156 L 0 6.156 Z "/>
<path transform="matrix(1,0,0,-1,204.1679,59.3488)" d="M 0 0 L 4.711 0 L 4.711 -1.218 L 1.31 -1.218 L 1.31 -2.974 L 4.393 -2.974 L 4.393 -4.21 L 1.31 -4.21 L 1.31 -6.156 L 4.729 -6.156 L 4.729 -7.375 L 0 -7.375 Z "/>
<path transform="matrix(1,0,0,-1,209.9755,63.022607)" d="M 0 0 C 0 2.183 1.482 3.811 3.819 3.811 C 4.875 3.811 5.884 3.556 6.512 3.174 L 6.012 2.02 C 5.483 2.347 4.729 2.564 3.874 2.564 C 2.537 2.564 1.392 1.746 1.392 0 C 1.392 -1.746 2.537 -2.573 3.874 -2.573 C 4.393 -2.573 4.938 -2.455 5.384 -2.255 L 5.384 -.928 L 3.737 -.928 L 3.737 .31 L 6.693 .31 L 6.693 -3.138 C 5.993 -3.564 4.766 -3.811 3.819 -3.811 C 1.482 -3.811 0 -2.183 0 0 "/>
<path transform="matrix(1,0,0,-1,218.8564,59.3488)" d="M 0 0 L 4.711 0 L 4.711 -1.218 L 1.31 -1.218 L 1.31 -2.974 L 4.393 -2.974 L 4.393 -4.21 L 1.31 -4.21 L 1.31 -6.156 L 4.729 -6.156 L 4.729 -7.375 L 0 -7.375 Z "/>
<path transform="matrix(1,0,0,-1,231.5019,60.458208)" d="M 0 0 C -1.392 0 -2.438 -1.019 -2.438 -2.564 C -2.438 -4.11 -1.392 -5.129 0 -5.129 C 1.4 -5.129 2.446 -4.11 2.446 -2.564 C 2.446 -1.019 1.4 0 0 0 M 0 -6.375 C -2.247 -6.375 -3.829 -4.72 -3.829 -2.564 C -3.829 -.418 -2.247 1.246 0 1.246 C 2.246 1.246 3.828 -.418 3.828 -2.564 C 3.828 -4.72 2.246 -6.375 0 -6.375 "/>
<path transform="matrix(1,0,0,-1,236.9355,66.7238)" d="M 0 0 L 0 7.375 L 4.702 7.375 L 4.702 6.157 L 1.31 6.157 L 1.31 4.401 L 4.375 4.401 L 4.375 3.165 L 1.31 3.165 L 1.31 0 Z "/>
<path transform="matrix(1,0,0,-1,245.9072,66.7238)" d="M 0 0 L 0 7.375 L 1.31 7.375 L 1.31 4.401 L 4.848 4.401 L 4.848 7.375 L 6.166 7.375 L 6.166 0 L 4.848 0 L 4.848 3.165 L 1.31 3.165 L 1.31 0 Z "/>
<path transform="matrix(1,0,0,-1,254.0966,59.3488)" d="M 0 0 L 4.711 0 L 4.711 -1.218 L 1.31 -1.218 L 1.31 -2.974 L 4.393 -2.974 L 4.393 -4.21 L 1.31 -4.21 L 1.31 -6.156 L 4.729 -6.156 L 4.729 -7.375 L 0 -7.375 Z "/>
<path transform="matrix(1,0,0,-1,262.2783,63.758905)" d="M 0 0 L 2.183 0 L 1.091 3.064 Z M 4.619 -2.965 L 3.246 -2.965 L 2.619 -1.228 L -.437 -1.228 L -1.056 -2.965 L -2.429 -2.965 L .3 4.41 L 1.892 4.41 Z "/>
<path transform="matrix(1,0,0,-1,269.4501,65.505008)" d="M 0 0 L 3.392 0 L 3.392 -1.219 L -1.319 -1.219 L -1.319 6.156 L 0 6.156 Z "/>
<path transform="matrix(1,0,0,-1,274.8681,60.566606)" d="M 0 0 L -2.456 0 L -2.456 1.218 L 3.773 1.218 L 3.773 0 L 1.318 0 L 1.318 -6.157 L 0 -6.157 Z "/>
<path transform="matrix(1,0,0,-1,279.9384,66.7238)" d="M 0 0 L 0 7.375 L 1.31 7.375 L 1.31 4.401 L 4.848 4.401 L 4.848 7.375 L 6.166 7.375 L 6.166 0 L 4.848 0 L 4.848 3.165 L 1.31 3.165 L 1.31 0 Z "/>
<path transform="matrix(1,0,0,-1,293.1913,65.5959)" d="M 0 0 C .892 0 1.573 .291 1.573 .973 C 1.573 1.591 1.019 1.801 .173 2.01 L -.437 2.164 C -1.773 2.491 -2.464 3.273 -2.464 4.365 C -2.464 5.565 -1.392 6.384 .209 6.384 C 1.128 6.384 2.165 6.102 2.792 5.72 L 2.273 4.565 C 1.737 4.91 .91 5.138 .2 5.138 C -.5 5.138 -1.109 4.865 -1.109 4.338 C -1.109 3.855 -.755 3.592 .063 3.383 L .683 3.229 C 1.928 2.919 2.956 2.282 2.956 .964 C 2.956 -.455 1.71 -1.237 .037 -1.237 C -.991 -1.237 -2.055 -.964 -2.683 -.582 L -2.164 .572 C -1.646 .245 -.764 0 0 0 "/>
<path transform="matrix(1,0,0,-1,298.6454,63.022607)" d="M 0 0 C 0 -1.746 1.146 -2.573 2.482 -2.573 C 3.21 -2.573 3.838 -2.355 4.365 -2.019 L 4.874 -3.183 C 4.247 -3.564 3.355 -3.811 2.428 -3.811 C .091 -3.811 -1.392 -2.183 -1.392 0 C -1.392 2.183 .091 3.811 2.428 3.811 C 3.355 3.811 4.247 3.556 4.874 3.174 L 4.365 2.02 C 3.838 2.347 3.21 2.564 2.482 2.564 C 1.146 2.564 0 1.746 0 0 "/>
<path transform="matrix(1,0,0,-1,0,83.4548)" d="M 304.925 24.106 L 306.235 24.106 L 306.235 16.731 L 304.925 16.731 Z "/>
<path transform="matrix(1,0,0,-1,308.2431,59.3488)" d="M 0 0 L 4.711 0 L 4.711 -1.218 L 1.31 -1.218 L 1.31 -2.974 L 4.393 -2.974 L 4.393 -4.21 L 1.31 -4.21 L 1.31 -6.156 L 4.729 -6.156 L 4.729 -7.375 L 0 -7.375 Z "/>
<path transform="matrix(1,0,0,-1,315.8974,60.5763)" d="M 0 0 L 0 -6.147 L -1.292 -6.147 L -1.292 1.228 L .728 1.228 L 3.419 -4.92 L 3.419 1.228 L 4.701 1.228 L 4.701 -6.147 L 2.691 -6.147 Z "/>
<path transform="matrix(1,0,0,-1,323.5869,63.022607)" d="M 0 0 C 0 -1.746 1.146 -2.573 2.482 -2.573 C 3.21 -2.573 3.838 -2.355 4.365 -2.019 L 4.874 -3.183 C 4.247 -3.564 3.355 -3.811 2.428 -3.811 C .091 -3.811 -1.392 -2.183 -1.392 0 C -1.392 2.183 .091 3.811 2.428 3.811 C 3.355 3.811 4.247 3.556 4.874 3.174 L 4.365 2.02 C 3.838 2.347 3.21 2.564 2.482 2.564 C 1.146 2.564 0 1.746 0 0 "/>
<path transform="matrix(1,0,0,-1,329.8574,59.3488)" d="M 0 0 L 4.711 0 L 4.711 -1.218 L 1.31 -1.218 L 1.31 -2.974 L 4.393 -2.974 L 4.393 -4.21 L 1.31 -4.21 L 1.31 -6.156 L 4.729 -6.156 L 4.729 -7.375 L 0 -7.375 Z "/>
<path transform="matrix(1,0,0,-1,338.4208,65.5959)" d="M 0 0 C .892 0 1.573 .291 1.573 .973 C 1.573 1.591 1.019 1.801 .173 2.01 L -.437 2.164 C -1.773 2.491 -2.464 3.273 -2.464 4.365 C -2.464 5.565 -1.392 6.384 .209 6.384 C 1.128 6.384 2.165 6.102 2.792 5.72 L 2.273 4.565 C 1.737 4.91 .909 5.138 .2 5.138 C -.5 5.138 -1.109 4.865 -1.109 4.338 C -1.109 3.855 -.755 3.592 .063 3.383 L .683 3.229 C 1.929 2.919 2.956 2.282 2.956 .964 C 2.956 -.455 1.71 -1.237 .036 -1.237 C -.991 -1.237 -2.055 -.964 -2.683 -.582 L -2.164 .572 C -1.646 .245 -.764 0 0 0 "/>
<path transform="matrix(1,0,0,-1,0,83.4548)" d="M 161.765 .121 L 160.676 .121 L 160.676 63.437 L 161.765 63.437 Z "/>
<path transform="matrix(1,0,0,-1,133.7064,63.941408)" d="M 0 0 L .968 2.333 L -1.365 3.301 L -1.776 4.286 L -5.834 2.605 L -6.177 -.625 L -3.65 -2.666 L .408 -.985 Z " fill="#d283b7"/>
<path transform="matrix(1,0,0,-1,138.157,69.1295)" d="M 0 0 L 2.15 0 L 2.15 2.15 L 1.019 3.28 L 4.489 6.751 L -.044 4.876 L -.659 6.35 L -2.642 7.175 L -3.464 5.189 L -2.856 3.712 L -7.294 1.871 L -5.267 .231 L -4.53 -2.268 L -1.131 1.131 Z " fill="#d283b7"/>
<path transform="matrix(1,0,0,-1,140.3068,72.56531)" d="M 0 0 L 0 2.527 L -2.526 2.527 L -3.28 3.28 L -6.387 .177 L -5.467 -2.941 L -2.353 -3.858 L .754 -.754 Z " fill="#d283b7"/>
<path transform="matrix(1,0,0,-1,131.8186,53.825204)" d="M 0 0 L 0 -1.599 L -4.808 -1.599 L -3.562 -3.888 L -3.837 -6.483 L .604 -4.642 L 1.216 -6.119 L 3.202 -6.941 L 4.027 -4.958 L 3.413 -3.477 L 7.95 -1.599 L 3.039 -1.599 L 3.039 0 L 1.518 1.518 Z " fill="#d283b7"/>
<path transform="matrix(1,0,0,-1,146.403,75.65491)" d="M 0 0 L 1.987 .822 L 1.161 2.808 L -.312 3.42 L 1.566 7.956 L -1.908 4.486 L -3.036 5.617 L -5.185 5.617 L -5.185 3.464 L -4.055 2.336 L -7.457 -1.063 L -4.954 -1.8 L -3.318 -3.83 L -1.477 .611 Z " fill="#d283b7"/>
<path transform="matrix(1,0,0,-1,150.7286,55.580507)" d="M 0 0 L -4.207 -4.207 L 1.29 -1.932 L .944 -.764 Z " fill="#d283b7"/>
<path transform="matrix(1,0,0,-1,138.1959,62.081506)" d="M 0 0 L .408 -.985 L 6.13 1.382 L 11.403 6.659 L 3.949 6.659 L -1.776 4.286 L -1.365 3.301 L -2.333 .968 Z " fill="#d283b7"/>
<path transform="matrix(1,0,0,-1,143.7428,69.1295)" d="M 0 0 L .754 -.754 L 5.135 3.63 L 7.987 10.513 L 1.097 7.661 L -3.28 3.28 L -2.526 2.527 L -2.526 0 Z " fill="#d283b7"/>
<path transform="matrix(1,0,0,-1,153.9997,58.670305)" d="M 0 0 L -1.165 .343 L -3.44 -5.148 L .764 -.944 Z " fill="#d283b7"/>
<path transform="matrix(1,0,0,-1,150.2871,54.515905)" d="M 0 0 L .129 1.209 L -.452 2.279 L -5.943 0 Z " fill="#d283b7"/>
<path transform="matrix(1,0,0,-1,149.7041,78.0064)" d="M 0 0 L -.968 2.333 L -3.301 1.365 L -4.286 1.776 L -5.966 -2.282 L -3.925 -4.808 L -.693 -4.465 L .985 -.407 Z " fill="#d283b7"/>
<path transform="matrix(1,0,0,-1,151.564,74.501308)" d="M 0 0 L -1.987 -.822 L -1.161 -2.808 L .312 -3.42 L -1.525 -7.861 L 1.066 -7.586 L 3.355 -8.832 L 3.355 3.922 L 1.477 -.611 Z " fill="#d283b7"/>
<path transform="matrix(1,0,0,-1,126.5154,54.514905)" d="M 0 0 L 4.394 0 L 4.394 1.066 L 6.18 2.853 L 4.394 4.639 L 4.394 5.705 L 0 5.705 L -1.552 2.853 Z " fill="#d283b7"/>
<path transform="matrix(1,0,0,-1,147.2771,71.741107)" d="M 0 0 L .985 -.407 L 1.953 -2.744 L 4.286 -1.776 L 5.274 -2.183 L 7.641 3.539 L 7.641 10.996 L 2.37 5.725 Z " fill="#d283b7"/>
<path transform="matrix(1,0,0,-1,131.9306,43.669404)" d="M 0 0 L .408 .985 L 2.744 1.953 L 1.776 4.286 L 2.184 5.27 L -1.874 6.951 L -4.401 4.91 L -4.058 1.681 Z " fill="#d283b7"/>
<path transform="matrix(1,0,0,-1,134.6908,39.383806)" d="M 0 0 L .822 -1.987 L 2.808 -1.161 L 3.42 .312 L 7.953 -1.562 L 4.486 1.908 L 5.617 3.039 L 5.617 5.189 L 3.467 5.189 L 2.333 4.055 L -1.063 7.457 L -1.8 4.958 L -3.83 3.318 L .611 1.477 Z " fill="#d283b7"/>
<path transform="matrix(1,0,0,-1,146.5211,43.536905)" d="M 0 0 L 4.207 -4.207 L 5.155 -3.443 L 5.498 -2.275 Z " fill="#d283b7"/>
<path transform="matrix(1,0,0,-1,142.1457,47.900506)" d="M 0 0 L 7.454 0 L 2.18 5.274 L -3.542 7.641 L -3.949 6.659 L -6.286 5.691 L -5.318 3.359 L -5.725 2.37 Z " fill="#d283b7"/>
<path transform="matrix(1,0,0,-1,137.78,33.286306)" d="M 0 0 L 2.527 0 L 2.527 2.527 L 3.28 3.28 L .173 6.388 L -2.941 5.467 L -3.861 2.35 L -.757 -.757 Z " fill="#d283b7"/>
<path transform="matrix(1,0,0,-1,131.8186,49.499906)" d="M 0 0 L 1.518 -1.518 L 3.039 0 L 3.039 1.599 L 7.95 1.599 L 3.413 3.477 L 4.027 4.958 L 3.202 6.941 L 1.216 6.119 L .604 4.642 L -3.837 6.483 L -3.562 3.888 L -4.808 1.599 L 0 1.599 Z " fill="#d283b7"/>
<path transform="matrix(1,0,0,-1,150.4155,50.017107)" d="M 0 0 L -.129 1.206 L -6.072 1.206 L -.581 -1.07 Z " fill="#d283b7"/>
<path transform="matrix(1,0,0,-1,146.403,26.685803)" d="M 0 0 L 2.333 -.968 L 3.301 1.365 L 4.286 1.776 L 2.605 5.834 L -.625 6.174 L -2.666 3.651 L -.985 -.407 Z " fill="#d283b7"/>
<path transform="matrix(1,0,0,-1,150.4006,26.014805)" d="M 0 0 L -.822 -1.987 L 1.161 -2.808 L 2.642 -2.197 L 4.52 -6.73 L 4.52 6.024 L 2.231 4.778 L -.363 5.053 L 1.477 .611 Z " fill="#d283b7"/>
<path transform="matrix(1,0,0,-1,151.564,29.808606)" d="M 0 0 L -2.333 .968 L -3.301 -1.365 L -4.285 -1.776 L -1.915 -7.501 L 3.355 -12.772 L 3.355 -5.314 L .985 .408 Z " fill="#d283b7"/>
<path transform="matrix(1,0,0,-1,150.5581,39.504705)" d="M 0 0 L 2.279 -5.494 L 3.44 -5.148 L 4.204 -4.204 Z " fill="#d283b7"/>
<path transform="matrix(1,0,0,-1,144.496,33.4424)" d="M 0 0 L -.754 -.754 L -3.28 -.754 L -3.28 -3.28 L -4.034 -4.034 L .343 -8.415 L 7.233 -11.267 L 4.381 -4.381 Z " fill="#d283b7"/>
<path transform="matrix(1,0,0,-1,135.7679,49.876806)" d="M 0 0 L -1.786 -1.786 L 0 -3.572 L 0 -4.639 L 6.197 -4.639 L 13.084 -1.786 L 6.197 1.066 L 0 1.066 Z " fill="#d283b7"/>
<path transform="matrix(1,0,0,-1,141.2162,31.136403)" d="M 0 0 L 0 -2.15 L 2.15 -2.15 L 3.28 -1.019 L 6.751 -4.493 L 4.873 .044 L 6.35 .659 L 7.172 2.642 L 5.185 3.464 L 3.708 2.856 L 1.871 7.294 L .231 5.267 L -2.268 4.53 L 1.131 1.131 Z " fill="#d283b7"/>
<path transform="matrix(1,0,0,-1,58.1768,48.657007)" d="M 0 0 C -14.621 0 -28.8 -1.886 -42.31 -5.422 C -40.759 -6.313 -39.069 -6.988 -37.279 -7.404 C -25.497 -3.767 -12.978 -1.807 0 -1.807 C 12.978 -1.807 25.497 -3.767 37.279 -7.404 C 39.069 -6.988 40.759 -6.313 42.31 -5.422 C 28.8 -1.886 14.621 0 0 0 "/>
<path transform="matrix(1,0,0,-1,4.6474,80.3634)" d="M 0 0 C 0 -1.231 -.427 -1.81 -1.6 -1.81 C -2.764 -1.81 -3.192 -1.231 -3.192 0 L -3.192 3.812 L -4.507 3.812 L -4.507 -.335 C -4.507 -2.044 -3.644 -3.091 -1.6 -3.091 C .453 -3.091 1.315 -2.044 1.315 -.335 L 1.315 3.812 L 0 3.812 Z "/>
<path transform="matrix(1,0,0,-1,11.9832,81.352008)" d="M 0 0 L -2.94 4.8 L -4.44 4.8 L -4.44 -1.994 L -3.133 -1.994 L -3.133 2.806 L -.193 -1.994 L 1.315 -1.994 L 1.315 4.8 L 0 4.8 Z "/>
<path transform="matrix(1,0,0,-1,0,83.4548)" d="M 14.909 .109 L 16.224 .109 L 16.224 6.9030005 L 14.909 6.9030005 Z "/>
<path transform="matrix(1,0,0,-1,20.2386,82.0725)" d="M 0 0 L -1.675 5.521 L -3.091 5.521 L -.955 -1.273 L .947 -1.273 L 3.1 5.521 L 1.684 5.521 Z "/>
<path transform="matrix(1,0,0,-1,25.4925,80.480709)" d="M 0 0 L 2.656 0 L 2.656 1.223 L 0 1.223 L 0 2.706 L 2.94 2.706 L 2.94 3.929 L -1.315 3.929 L -1.315 -2.865 L 2.957 -2.865 L 2.957 -1.634 L 0 -1.634 Z "/>
<path transform="matrix(1,0,0,-1,32.4628,79.525608)" d="M 0 0 L -1.449 0 L -1.449 1.751 L 0 1.751 C 1.06 1.751 1.014 1.017 1.014 .905 C 1.014 .31 .637 0 0 0 M 2.337 .955 C 2.337 2.398 1.347 2.974 -.084 2.974 L -2.765 2.974 L -2.765 -3.82 L -1.449 -3.82 L -1.449 -1.156 L -.494 -1.156 L 1.089 -3.82 L 2.538 -3.82 L .846 -1.039 C 1.843 -.762 2.337 0 2.337 .955 "/>
<path transform="matrix(1,0,0,-1,38.9213,79.3664)" d="M 0 0 C -1.128 .293 -1.566 .447 -1.566 1.047 C -1.566 1.603 -.975 1.751 -.419 1.751 C .243 1.751 .913 1.567 1.408 1.24 L 1.91 2.337 C 1.332 2.714 .453 2.932 -.427 2.932 C -1.969 2.932 -2.882 2.17 -2.89 1.039 C -2.899 -.137 -2.213 -.69 -1.114 -.997 C -.027 -1.314 .712 -1.468 .712 -2.094 C .712 -2.589 .243 -2.907 -.653 -2.907 C -1.391 -2.907 -2.103 -2.706 -2.605 -2.363 L -3.108 -3.46 C -2.505 -3.862 -1.575 -4.088 -.603 -4.088 C 1.374 -4.088 2.044 -3.066 2.044 -2.061 C 2.044 -1.022 1.458 -.402 0 0 "/>
<path transform="matrix(1,0,0,-1,0,83.4548)" d="M 42.211 .109 L 43.525999 .109 L 43.525999 6.9030005 L 42.211 6.9030005 Z "/>
<path transform="matrix(1,0,0,-1,44.5238,77.783107)" d="M 0 0 L 2.153 0 L 2.153 -5.563 L 3.468 -5.563 L 3.468 0 L 5.63 0 L 5.63 1.231 L 0 1.231 Z "/>
<path transform="matrix(1,0,0,-1,55.615,76.551609)" d="M 0 0 L -1.692 -3.007 L -3.384 0 L -4.867 0 L -2.354 -4.239 L -2.354 -6.794 L -1.031 -6.794 L -1.031 -4.239 L 1.483 0 Z "/>
<path transform="matrix(1,0,0,-1,63.1342,82.172908)" d="M 0 0 C -1.265 0 -2.132 .986 -2.14 2.243 C -2.14 3.517 -1.282 4.457 0 4.457 C 1.265 4.457 2.132 3.517 2.132 2.243 C 2.124 .986 1.257 0 0 0 M 0 5.739 C -2.12 5.739 -3.464 4.178 -3.464 2.243 C -3.456 .316 -2.111 -1.282 0 -1.282 C 2.103 -1.282 3.447 .316 3.456 2.243 C 3.456 4.178 2.111 5.739 0 5.739 "/>
<path transform="matrix(1,0,0,-1,71.8739,77.783107)" d="M 0 0 L 0 1.231 L -4.356 1.231 L -4.356 -5.563 L -3.041 -5.563 L -3.041 -2.706 L -.293 -2.706 L -.293 -1.474 L -3.041 -1.474 L -3.041 0 Z "/>
<path transform="matrix(1,0,0,-1,77.4284,79.3664)" d="M 0 0 C -1.128 .293 -1.566 .447 -1.566 1.047 C -1.566 1.603 -.975 1.751 -.419 1.751 C .243 1.751 .913 1.567 1.408 1.24 L 1.91 2.337 C 1.332 2.714 .453 2.932 -.427 2.932 C -1.969 2.932 -2.882 2.17 -2.89 1.039 C -2.899 -.137 -2.213 -.69 -1.114 -.997 C -.027 -1.314 .712 -1.468 .712 -2.094 C .712 -2.589 .243 -2.907 -.653 -2.907 C -1.391 -2.907 -2.103 -2.706 -2.605 -2.363 L -3.108 -3.46 C -2.505 -3.862 -1.575 -4.088 -.603 -4.088 C 1.374 -4.088 2.044 -3.066 2.044 -2.061 C 2.044 -1.022 1.458 -.402 0 0 "/>
<path transform="matrix(1,0,0,-1,84.6309,79.25761)" d="M 0 0 L -2.949 0 L -2.949 2.706 L -4.264 2.706 L -4.264 -4.088 L -2.949 -4.088 L -2.949 -1.24 L 0 -1.24 L 0 -4.088 L 1.315 -4.088 L 1.315 2.706 L 0 2.706 Z "/>
<path transform="matrix(1,0,0,-1,88.943,80.505809)" d="M 0 0 L .913 2.58 L .938 2.664 L .963 2.58 L 1.885 0 Z M .142 3.954 L -2.337 -2.84 L -.972 -2.84 L -.394 -1.181 L 2.287 -1.181 L 2.873 -2.84 L 4.231 -2.84 L 1.734 3.954 Z "/>
<path transform="matrix(1,0,0,-1,101.8351,81.1425)" d="M 0 0 C 0 -.746 -.335 -1.022 -.863 -1.022 C -1.215 -1.022 -1.541 -.93 -1.852 -.779 L -2.329 -1.91 C -1.96 -2.12 -1.324 -2.312 -.57 -2.312 C .662 -2.312 1.315 -1.592 1.315 -.151 L 1.315 4.591 L 0 4.591 Z "/>
<path transform="matrix(1,0,0,-1,105.8806,80.505809)" d="M 0 0 L .938 2.664 L 1.885 0 Z M .142 3.954 L -2.337 -2.84 L -.972 -2.84 L -.394 -1.181 L 2.287 -1.181 L 2.873 -2.84 L 4.231 -2.84 L 1.734 3.954 Z "/>
<path transform="matrix(1,0,0,-1,115.0384,76.551609)" d="M 0 0 L 0 -2.706 L -2.949 -2.706 L -2.949 0 L -4.264 0 L -4.264 -6.794 L -2.949 -6.794 L -2.949 -3.946 L 0 -3.946 L 0 -6.794 L 1.315 -6.794 L 1.315 0 Z "/>
<path transform="matrix(1,0,0,-1,96.6012,79.525608)" d="M 0 0 L -1.449 0 L -1.449 1.751 L 0 1.751 C 1.06 1.751 1.014 1.017 1.014 .905 C 1.014 .31 .637 0 0 0 M 2.337 .955 C 2.337 2.398 1.347 2.974 -.084 2.974 L -2.765 2.974 L -2.765 -3.82 L -1.449 -3.82 L -1.449 -1.156 L -.494 -1.156 L 1.089 -3.82 L 2.538 -3.82 L .846 -1.039 C 1.843 -.762 2.337 0 2.337 .955 "/>
<path transform="matrix(1,0,0,-1,93.1103,70.5939)" d="M 0 0 L -1.624 0 C -2.457 0 -3.132 .675 -3.132 1.508 C -3.132 2.372 -2.431 3.074 -1.566 3.074 C -.701 3.074 0 2.372 0 1.508 Z M -13.378 2.596 C -12.908 2.903 -12.318 3.074 -11.702 3.074 C -11.086 3.074 -10.497 2.903 -10.027 2.596 L -11.168 0 L -12.237 0 Z M -28.703 0 C -29.552 0 -30.24 .688 -30.24 1.537 C -30.24 2.386 -29.552 3.074 -28.703 3.074 L -26.908 3.074 L -26.908 0 Z M -1.566 4.305 C -3.157 4.305 -4.447 3.015 -4.447 1.424 C -4.447 .899 -4.293 .412 -4.031 0 L -9.732 0 L -8.459 2.894 C -8.91 3.322 -9.838 4.305 -11.702 4.305 C -13.459 4.305 -14.384 3.426 -14.945 2.894 L -13.673 0 L -25.593 0 L -25.593 4.305 L -28.787 4.305 C -30.316 4.305 -31.555 3.066 -31.555 1.537 C -31.555 .008 -30.316 -1.231 -28.787 -1.231 L 1.315 -1.231 L 1.315 1.424 C 1.315 3.015 .025 4.305 -1.566 4.305 "/>
<path transform="matrix(1,0,0,-1,111.4319,72.7796)" d="M 0 0 C -.43 0 -.778 -.348 -.778 -.778 C -.778 -1.208 -.43 -1.557 0 -1.557 C .43 -1.557 .778 -1.208 .778 -.778 C .778 -.348 .43 0 0 0 "/>
<path transform="matrix(1,0,0,-1,5.3051,65.3018)" d="M 0 0 C .43 0 .778 .348 .778 .778 C .778 1.208 .43 1.557 0 1.557 C -.43 1.557 -.778 1.208 -.778 .778 C -.778 .348 -.43 0 0 0 "/>
<path transform="matrix(1,0,0,-1,3.28,65.3018)" d="M 0 0 C .43 0 .778 .348 .778 .778 C .778 1.208 .43 1.557 0 1.557 C -.43 1.557 -.778 1.208 -.778 .778 C -.778 .348 -.43 0 0 0 "/>
<path transform="matrix(1,0,0,-1,66.86,65.3018)" d="M 0 0 C .43 0 .778 .348 .778 .778 C .778 1.208 .43 1.557 0 1.557 C -.43 1.557 -.778 1.208 -.778 .778 C -.778 .348 -.43 0 0 0 "/>
<path transform="matrix(1,0,0,-1,64.8349,65.3018)" d="M 0 0 C .43 0 .778 .348 .778 .778 C .778 1.208 .43 1.557 0 1.557 C -.43 1.557 -.778 1.208 -.778 .778 C -.778 .348 -.43 0 0 0 "/>
<path transform="matrix(1,0,0,-1,18.4491,63.745004)" d="M 0 0 C -.43 0 -.778 -.349 -.778 -.778 C -.778 -1.208 -.43 -1.557 0 -1.557 C .43 -1.557 .778 -1.208 .778 -.778 C .778 -.349 .43 0 0 0 "/>
<path transform="matrix(1,0,0,-1,16.424,65.3018)" d="M 0 0 C .43 0 .778 .348 .778 .778 C .778 1.208 .43 1.557 0 1.557 C -.43 1.557 -.778 1.208 -.778 .778 C -.778 .348 -.43 0 0 0 "/>
<path transform="matrix(1,0,0,-1,53.4616,70.5939)" d="M 0 0 L -4.727 0 C -5.233 0 -5.645 .412 -5.645 .918 L -5.645 4.305 L -6.96 4.305 L -6.96 1.311 C -6.96 .489 -7.626 -.177 -8.448 -.177 C -9.27 -.177 -9.936 .489 -9.936 1.311 L -9.936 3.74 L -11.251 3.74 L -11.251 1.12 C -11.251 .473 -11.774 -.212 -12.612 -.176 C -13.292 -.146 -13.845 .462 -13.845 1.175 L -13.845 3.74 L -15.16 3.74 L -15.16 .918 C -15.16 .412 -15.572 0 -16.078 0 L -27.969 0 L -27.969 6.651 L -29.284 6.651 L -29.284 -1.231 L -16.078 -1.231 C -15.45 -1.231 -14.883 -.97 -14.477 -.551 C -13.999 -1.075 -13.313 -1.406 -12.548 -1.406 C -11.741 -1.406 -11.019 -1.039 -10.54 -.463 C -10.026 -1.04 -9.281 -1.405 -8.448 -1.405 C -7.629 -1.405 -6.894 -1.052 -6.382 -.492 C -5.973 -.945 -5.384 -1.231 -4.727 -1.231 L 1.315 -1.231 L 1.315 6.651 L 0 6.651 Z "/>
<path transform="matrix(1,0,0,-1,0,83.4548)" d="M 56.458 11.63 L 57.773 11.63 L 57.773 19.512001 L 56.458 19.512001 Z "/>
<path transform="matrix(1,0,0,-1,42.8682,64.2834)" d="M 0 0 C .43 0 .778 .348 .778 .778 C .778 1.208 .43 1.557 0 1.557 C -.43 1.557 -.778 1.208 -.778 .778 C -.778 .348 -.43 0 0 0 "/>
<path transform="matrix(1,0,0,-1,43.9172,64.389209)" d="M 0 0 C -.43 0 -.778 -.348 -.778 -.778 C -.778 -1.208 -.43 -1.557 0 -1.557 C .43 -1.557 .778 -1.208 .778 -.778 C .778 -.348 .43 0 0 0 "/>
<path transform="matrix(1,0,0,-1,41.8193,64.389209)" d="M 0 0 C -.43 0 -.778 -.348 -.778 -.778 C -.778 -1.208 -.43 -1.557 0 -1.557 C .43 -1.557 .778 -1.208 .778 -.778 C .778 -.348 .43 0 0 0 "/>
<path transform="matrix(1,0,0,-1,17.7916,70.5939)" d="M 0 0 L -2.33 0 L -2.559 .861 C -2.857 1.978 -2.014 3.074 -.859 3.074 L 0 3.074 Z M -14.94 0 C -15.788 0 -16.476 .688 -16.476 1.537 C -16.476 2.386 -15.788 3.074 -14.94 3.074 L -13.144 3.074 L -13.144 0 Z M -3.807 .438 L -3.691 0 L -11.829 0 L -11.829 4.305 L -15.024 4.305 C -16.552 4.305 -17.792 3.066 -17.792 1.537 C -17.792 .008 -16.552 -1.231 -15.024 -1.231 L 1.315 -1.231 L 1.315 4.305 L -.836 4.305 C -2.856 4.305 -4.327 2.388 -3.807 .438 "/>
<path transform="matrix(1,0,0,-1,115.0509,69.3169)" d="M 0 0 C -1.247 1.754 -3.13 4.321 -7.065 2.267 L -6.496 1.177 C -3.686 2.645 -2.448 1.318 -1.004 -.713 C -.856 -.922 -.715 -1.109 -.579 -1.277 L -17.629 -1.277 L -17.629 5.374 L -18.944 5.374 L -18.944 -2.508 L 1.303 -2.508 L 1.303 -1.277 C .982 -1.278 .438 -.616 0 0 "/>
<path transform="matrix(1,0,0,-1,21.1808,66.2891)" d="M 0 0 L 0 -4.951 C 0 -5.084 -.027 -6.217 -1.776 -5.988 L -1.776 -7.22 C .998 -7.531 1.315 -5.382 1.315 -4.867 L 1.315 0 Z "/>
<path transform="matrix(1,0,0,-1,84.6208,35.079607)" d="M 0 0 C 0 .286 -.232 .518 -.518 .518 L -52.37 .518 C -52.656 .518 -52.888 .286 -52.888 0 L -52.888 -.646 L 0 -.646 Z "/>
<path transform="matrix(1,0,0,-1,54.6293,13.194)" d="M 0 0 C -2.78 -3.823 -5.39 -11.23 -7.721 -14.072 C -7.109 -15.237 -6.216 -16.827 -4.917 -18.539 C -3.094 -16.616 -2.945 -16.459 -.599 -14.072 C -2.262 -8.527 -2.016 -3.703 .036 0 C .024 0 .008 .009 0 0 "/>
<path transform="matrix(1,0,0,-1,42.3491,31.732804)" d="M 0 0 C 1.558 1.826 2.83 3.12 4.428 4.467 C 3.868 10.627 5.023 15.524 9.304 18.889 L 9.274 18.889 C 6.692 17.073 4.223 14.279 -1.872 4.467 C -1.504 3.245 -.797 1.539 0 0 "/>
<path transform="matrix(1,0,0,-1,35.9419,27.266003)" d="M 0 0 C 0 -1.401 .239 -3.237 .613 -4.467 C 2.274 -2.365 2.902 -1.661 4.404 0 C 5.118 8.911 12.554 14.137 13.328 14.562 L 13.306 14.562 C 9.777 12.711 5.516 8.949 0 0 "/>
<path transform="matrix(1,0,0,-1,62.1923,27.266003)" d="M 0 0 C -2.224 4.336 -3.703 8.295 -3.987 14.072 L -4.044 14.072 C -4.328 8.295 -5.807 4.336 -8.031 0 C -6.583 -1.679 -6.239 -2.078 -4.015 -4.467 C -1.792 -2.078 -1.448 -1.679 0 0 "/>
<path transform="matrix(1,0,0,-1,66.6414,31.732804)" d="M 0 0 C 1.299 1.712 2.192 3.302 2.804 4.467 C .473 7.309 -2.137 14.715 -4.917 18.539 C -4.925 18.548 -4.941 18.539 -4.953 18.539 C -2.902 14.835 -2.655 10.011 -4.318 4.467 C -1.972 2.08 -1.823 1.923 0 0 "/>
<path transform="matrix(1,0,0,-1,69.577,27.266003)" d="M 0 0 C 1.598 -1.346 2.869 -2.641 4.428 -4.467 C 5.225 -2.928 5.931 -1.221 6.3 0 C .204 9.812 -2.264 12.606 -4.847 14.422 L -4.876 14.422 C -.596 11.058 .559 6.16 0 0 "/>
<path transform="matrix(1,0,0,-1,76.0079,27.266003)" d="M 0 0 C 1.502 -1.661 2.13 -2.365 3.791 -4.467 C 4.165 -3.237 4.404 -1.401 4.404 0 C -1.112 8.949 -5.373 12.711 -8.902 14.562 L -8.924 14.562 C -8.151 14.137 -.715 8.911 0 0 "/>
<path transform="matrix(1,0,0,-1,80.5429,27.266003)" d="M 0 0 C .71 -.982 2.115 -2.912 3.02 -4.467 C 3.02 4.619 -5.441 11.935 -11.949 14.572 C -11.953 14.574 -11.957 14.572 -11.961 14.572 C -2.267 10.234 -.054 1.418 0 0 "/>
<path transform="matrix(1,0,0,-1,47.7715,12.693802)" d="M 0 0 C -.004 0 -.008 .001 -.011 0 C -6.52 -2.637 -14.981 -9.954 -14.981 -19.039 C -14.076 -17.485 -12.671 -15.555 -11.961 -14.572 C -11.907 -13.154 -9.693 -4.338 0 0 "/>
<path transform="matrix(1,0,0,-1,55.6671,45.828207)" d="M 0 0 L 0 .869 C 0 5.866 1.107 7.201 1.107 7.201 L -6.85 7.201 C -6.85 7.201 -5.743 5.866 -5.743 .869 L -5.743 0 Z "/>
<path transform="matrix(1,0,0,-1,66.4294,45.828207)" d="M 0 0 L 0 .869 C 0 5.866 1.107 7.201 1.107 7.201 L -6.85 7.201 C -6.85 7.201 -5.743 5.866 -5.743 .869 L -5.743 0 Z "/>
<path transform="matrix(1,0,0,-1,82.4575,45.828207)" d="M 0 0 L 0 .869 C 0 5.866 .577 7.201 .577 7.201 L -3.568 7.201 C -3.568 7.201 -2.991 5.866 -2.991 .869 L -2.991 0 Z "/>
<path transform="matrix(1,0,0,-1,36.8874,45.828207)" d="M 0 0 L 0 .869 C 0 5.866 .577 7.201 .577 7.201 L -3.568 7.201 C -3.568 7.201 -2.991 5.866 -2.991 .869 L -2.991 0 Z "/>
<path transform="matrix(1,0,0,-1,75.2854,45.828207)" d="M 0 0 L 0 .869 C 0 5.866 .799 7.201 .799 7.201 L -4.944 7.201 C -4.944 7.201 -4.145 5.866 -4.145 .869 L -4.145 0 Z "/>
<path transform="matrix(1,0,0,-1,45.2129,45.828207)" d="M 0 0 L 0 .869 C 0 5.866 .799 7.201 .799 7.201 L -4.944 7.201 C -4.944 7.201 -4.145 5.866 -4.145 .869 L -4.145 0 Z "/>
<path transform="matrix(1,0,0,-1,58.1768,8.958702)" d="M 0 0 C 1.362 0 2.5 -.236 3.605 -.608 C 3.613 -.61 3.621 -.607 3.625 -.6 C 3.629 -.593 3.627 -.584 3.62 -.579 L .331 1.901 L .331 1.91 C .573 2.032 .74 2.28 .74 2.569 C .74 2.859 .573 3.107 .331 3.228 L .331 3.714 L .74 4.021 L .01 8.95 C .01 8.955 .005 8.959 0 8.959 C -.005 8.959 -.009 8.955 -.01 8.95 L -.74 4.021 L -.331 3.714 L -.331 3.228 C -.573 3.107 -.74 2.859 -.74 2.569 C -.74 2.28 -.573 2.032 -.331 1.91 L -.331 1.901 L -3.62 -.579 C -3.627 -.584 -3.629 -.593 -3.625 -.6 C -3.621 -.607 -3.613 -.61 -3.605 -.608 C -2.504 -.237 -1.365 0 0 0 "/>
</g>
</g>
</g>
</svg>
