<svg width="50" height="50" viewBox="0 0 50 50" fill="none" xmlns="http://www.w3.org/2000/svg">
<g filter="url(#filter0_i_97_29)">
<path opacity="0.4" d="M25.0001 45.8333C36.5063 45.8333 45.8334 36.5062 45.8334 25C45.8334 13.4937 36.5063 4.16666 25.0001 4.16666C13.4938 4.16666 4.16675 13.4937 4.16675 25C4.16675 36.5062 13.4938 45.8333 25.0001 45.8333Z" fill="black"/>
<path d="M25.0001 28.6458C25.8542 28.6458 26.5626 27.9375 26.5626 27.0833V16.6667C26.5626 15.8125 25.8542 15.1042 25.0001 15.1042C24.1459 15.1042 23.4376 15.8125 23.4376 16.6667V27.0833C23.4376 27.9375 24.1459 28.6458 25.0001 28.6458ZM26.9167 32.5396C26.8126 32.2896 26.6667 32.0604 26.4792 31.8521C26.2709 31.6646 26.0417 31.5187 25.7917 31.4146C25.2845 31.2062 24.7156 31.2062 24.2084 31.4146C23.9584 31.5187 23.7292 31.6646 23.5209 31.8521C23.3334 32.0604 23.1876 32.2896 23.0834 32.5396C22.9792 32.7896 22.9167 33.0604 22.9167 33.3312C22.9167 33.6021 22.9792 33.8729 23.0834 34.1229C23.1876 34.3937 23.3334 34.6021 23.5209 34.8104C23.7292 34.9979 23.9584 35.1437 24.2084 35.2479C24.4584 35.3521 24.7292 35.4146 25.0001 35.4146C25.2709 35.4146 25.5417 35.3521 25.7917 35.2479C26.0417 35.1437 26.2709 34.9979 26.4792 34.8104C26.6667 34.6021 26.8126 34.3937 26.9167 34.1229C27.0209 33.8729 27.0834 33.6021 27.0834 33.3312C27.0834 33.0604 27.0209 32.7896 26.9167 32.5396Z" fill="black"/>
</g>
<defs>
<filter id="filter0_i_97_29" x="0" y="0" width="50" height="54" filterUnits="userSpaceOnUse" color-interpolation-filters="sRGB">
<feFlood flood-opacity="0" result="BackgroundImageFix"/>
<feBlend mode="normal" in="SourceGraphic" in2="BackgroundImageFix" result="shape"/>
<feColorMatrix in="SourceAlpha" type="matrix" values="0 0 0 0 0 0 0 0 0 0 0 0 0 0 0 0 0 0 127 0" result="hardAlpha"/>
<feOffset dy="4"/>
<feGaussianBlur stdDeviation="2"/>
<feComposite in2="hardAlpha" operator="arithmetic" k2="-1" k3="1"/>
<feColorMatrix type="matrix" values="0 0 0 0 0 0 0 0 0 0 0 0 0 0 0 0 0 0 0.25 0"/>
<feBlend mode="normal" in2="shape" result="effect1_innerShadow_97_29"/>
</filter>
</defs>
</svg>
