<svg width="37" height="39" viewBox="0 0 37 39" fill="none" xmlns="http://www.w3.org/2000/svg">
<g filter="url(#filter0_i_78_763)">
<path opacity="0.4" d="M30.2804 20.7834V30.2325C30.2804 32.6667 28.3829 35.2734 26.1021 36.04L19.9879 38.0717C18.9146 38.4359 17.1704 38.4359 16.1162 38.0717L10.0021 36.04C7.70206 35.2734 5.82373 32.6667 5.82373 30.2325L5.8429 20.7834L14.3146 26.3034C16.3846 27.6642 19.7962 27.6642 21.8662 26.3034L30.2804 20.7834Z" fill="black"/>
<path d="M33.3452 8.55313L21.8644 1.02062C19.7944 -0.340208 16.3827 -0.340208 14.3127 1.02062L2.77437 8.55313C-0.924792 10.949 -0.924792 16.3731 2.77437 18.7881L5.84104 20.7815L14.3127 26.3015C16.3827 27.6623 19.7944 27.6623 21.8644 26.3015L30.2785 20.7815L32.9044 19.0565V24.9215C32.9044 25.7073 33.556 26.359 34.3419 26.359C35.1277 26.359 35.7794 25.7073 35.7794 24.9215V15.4915C36.546 13.019 35.7602 10.144 33.3452 8.55313Z" fill="black"/>
</g>
<defs>
<filter id="filter0_i_78_763" x="0" y="0" width="36.0623" height="42.3448" filterUnits="userSpaceOnUse" color-interpolation-filters="sRGB">
<feFlood flood-opacity="0" result="BackgroundImageFix"/>
<feBlend mode="normal" in="SourceGraphic" in2="BackgroundImageFix" result="shape"/>
<feColorMatrix in="SourceAlpha" type="matrix" values="0 0 0 0 0 0 0 0 0 0 0 0 0 0 0 0 0 0 127 0" result="hardAlpha"/>
<feOffset dy="4"/>
<feGaussianBlur stdDeviation="2"/>
<feComposite in2="hardAlpha" operator="arithmetic" k2="-1" k3="1"/>
<feColorMatrix type="matrix" values="0 0 0 0 0 0 0 0 0 0 0 0 0 0 0 0 0 0 0.25 0"/>
<feBlend mode="normal" in2="shape" result="effect1_innerShadow_78_763"/>
</filter>
</defs>
</svg>
