<svg width="40" height="40" viewBox="0 0 40 40" fill="none" xmlns="http://www.w3.org/2000/svg">
<g filter="url(#filter0_i_21_42)">
<path opacity="0.4" d="M20 40C31.046 40 40 31.046 40 20C40 8.954 31.046 0 20 0C8.954 0 0 8.954 0 20C0 31.046 8.954 40 20 40Z" fill="black"/>
<path d="M20 9.85803C15.86 9.85803 12.5 13.218 12.5 17.358C12.5 21.418 15.68 24.718 19.9 24.838H20.26C22.2014 24.7742 24.042 23.9582 25.393 22.5625C26.7439 21.1667 27.4995 19.3005 27.5 17.358C27.5 13.218 24.14 9.85803 20 9.85803ZM33.558 34.692C29.8669 38.1036 25.0242 39.9964 19.998 39.992C14.758 39.992 9.99799 37.972 6.43799 34.692C6.91799 32.872 8.21799 31.212 10.118 29.932C15.578 26.292 24.458 26.292 29.878 29.932C31.798 31.212 33.078 32.872 33.558 34.692Z" fill="black"/>
</g>
<defs>
<filter id="filter0_i_21_42" x="0" y="0" width="40" height="44" filterUnits="userSpaceOnUse" color-interpolation-filters="sRGB">
<feFlood flood-opacity="0" result="BackgroundImageFix"/>
<feBlend mode="normal" in="SourceGraphic" in2="BackgroundImageFix" result="shape"/>
<feColorMatrix in="SourceAlpha" type="matrix" values="0 0 0 0 0 0 0 0 0 0 0 0 0 0 0 0 0 0 127 0" result="hardAlpha"/>
<feOffset dy="4"/>
<feGaussianBlur stdDeviation="2"/>
<feComposite in2="hardAlpha" operator="arithmetic" k2="-1" k3="1"/>
<feColorMatrix type="matrix" values="0 0 0 0 0 0 0 0 0 0 0 0 0 0 0 0 0 0 0.25 0"/>
<feBlend mode="normal" in2="shape" result="effect1_innerShadow_21_42"/>
</filter>
</defs>
</svg>
