<svg width="100" height="25" viewBox="0 0 100 25" fill="none" xmlns="http://www.w3.org/2000/svg">
<path d="M88.059 2.84309e-06C88.3282 2.86662e-06 88.5973 0.0991679 88.8098 0.311667L98.0465 9.54833C98.768 10.2754 99.1729 11.2582 99.1729 12.2825C99.1729 13.3068 98.768 14.2896 98.0465 15.0167L88.8098 24.2533C88.399 24.6642 87.719 24.6642 87.3081 24.2533C86.8973 23.8425 86.8973 23.1625 87.3081 22.7517L96.5448 13.515C97.2248 12.835 97.2248 11.73 96.5448 11.05L87.3082 1.81334C86.8973 1.4025 86.8973 0.722501 87.3082 0.311667C87.5207 0.113334 87.7898 2.81956e-06 88.059 2.84309e-06Z" fill="black"/>
<path d="M16.468 17.91C16.2747 17.7833 16.0747 17.62 15.868 17.42C15.6613 17.22 15.4647 16.9967 15.278 16.75C15.098 16.5033 14.9413 16.2567 14.808 16.01L15.538 15.74C15.7113 16.0867 15.9347 16.4 16.208 16.68C16.4813 16.9667 16.758 17.2133 17.038 17.42L16.468 17.91ZM11.328 12.47C11.328 11.7233 11.4547 11.0833 11.708 10.55C11.968 10.01 12.338 9.59333 12.818 9.3C13.3047 9.00667 13.888 8.86 14.568 8.86C15.228 8.86 15.8013 9.00667 16.288 9.3C16.7747 9.59333 17.148 10.01 17.408 10.55C17.6747 11.0833 17.808 11.72 17.808 12.46C17.808 13.2067 17.6747 13.85 17.408 14.39C17.1413 14.93 16.7647 15.35 16.278 15.65C15.798 15.9433 15.228 16.09 14.568 16.09C13.888 16.09 13.308 15.9433 12.828 15.65C12.348 15.35 11.978 14.93 11.718 14.39C11.458 13.85 11.328 13.21 11.328 12.47ZM12.198 12.47C12.198 13.3767 12.398 14.0867 12.798 14.6C13.198 15.1067 13.788 15.36 14.568 15.36C15.3147 15.36 15.8947 15.1067 16.308 14.6C16.728 14.0867 16.938 13.3767 16.938 12.47C16.938 11.5567 16.7313 10.85 16.318 10.35C15.9047 9.84333 15.3213 9.59 14.568 9.59C13.788 9.59 13.198 9.84333 12.798 10.35C12.398 10.85 12.198 11.5567 12.198 12.47ZM20.9926 16.09C20.3993 16.09 19.9493 15.9267 19.6426 15.6C19.3426 15.2733 19.1926 14.7733 19.1926 14.1V10.98H20.0026V14.08C20.0026 14.54 20.096 14.88 20.2826 15.1C20.4693 15.3133 20.7593 15.42 21.1526 15.42C21.5926 15.42 21.946 15.2767 22.2126 14.99C22.4793 14.7033 22.6126 14.32 22.6126 13.84V10.98H23.4226V16H22.6326V14.87H22.7626C22.6226 15.2567 22.396 15.5567 22.0826 15.77C21.776 15.9833 21.4126 16.09 20.9926 16.09ZM27.2241 16.09C26.4374 16.09 25.8174 15.8633 25.3641 15.41C24.9108 14.95 24.6841 14.3133 24.6841 13.5C24.6841 12.9733 24.7841 12.5167 24.9841 12.13C25.1841 11.7367 25.4641 11.4333 25.8241 11.22C26.1841 11 26.5974 10.89 27.0641 10.89C27.5241 10.89 27.9108 10.9867 28.2241 11.18C28.5374 11.3733 28.7774 11.65 28.9441 12.01C29.1108 12.3633 29.1941 12.7833 29.1941 13.27V13.57H25.3041V13.06H28.6641L28.4941 13.19C28.4941 12.6567 28.3741 12.24 28.1341 11.94C27.8941 11.64 27.5374 11.49 27.0641 11.49C26.5641 11.49 26.1741 11.6667 25.8941 12.02C25.6141 12.3667 25.4741 12.8367 25.4741 13.43V13.52C25.4741 14.1467 25.6274 14.6233 25.9341 14.95C26.2474 15.27 26.6841 15.43 27.2441 15.43C27.5441 15.43 27.8241 15.3867 28.0841 15.3C28.3508 15.2067 28.6041 15.0567 28.8441 14.85L29.1241 15.42C28.9041 15.6333 28.6241 15.8 28.2841 15.92C27.9508 16.0333 27.5974 16.09 27.2241 16.09ZM32.1036 16.09C31.7036 16.09 31.3302 16.0367 30.9836 15.93C30.6369 15.8167 30.3502 15.66 30.1236 15.46L30.4036 14.89C30.6502 15.0833 30.9169 15.2267 31.2036 15.32C31.4969 15.4133 31.8002 15.46 32.1136 15.46C32.5136 15.46 32.8136 15.39 33.0136 15.25C33.2202 15.1033 33.3236 14.9033 33.3236 14.65C33.3236 14.4567 33.2569 14.3033 33.1236 14.19C32.9969 14.07 32.7869 13.9767 32.4936 13.91L31.5636 13.72C31.1369 13.6267 30.8169 13.47 30.6036 13.25C30.3902 13.0233 30.2836 12.7367 30.2836 12.39C30.2836 12.0967 30.3602 11.84 30.5136 11.62C30.6669 11.3933 30.8902 11.2167 31.1836 11.09C31.4769 10.9567 31.8202 10.89 32.2136 10.89C32.5802 10.89 32.9169 10.9467 33.2236 11.06C33.5369 11.1667 33.7969 11.3233 34.0036 11.53L33.7136 12.09C33.5136 11.8967 33.2836 11.7533 33.0236 11.66C32.7702 11.56 32.5069 11.51 32.2336 11.51C31.8402 11.51 31.5436 11.59 31.3436 11.75C31.1502 11.9033 31.0536 12.1067 31.0536 12.36C31.0536 12.5533 31.1136 12.7133 31.2336 12.84C31.3602 12.96 31.5536 13.05 31.8136 13.11L32.7436 13.3C33.1969 13.4 33.5336 13.5567 33.7536 13.77C33.9802 13.9767 34.0936 14.2567 34.0936 14.61C34.0936 14.91 34.0102 15.1733 33.8436 15.4C33.6769 15.62 33.4436 15.79 33.1436 15.91C32.8502 16.03 32.5036 16.09 32.1036 16.09ZM37.1257 16.09C36.6323 16.09 36.2557 15.95 35.9957 15.67C35.7357 15.3833 35.6057 14.9533 35.6057 14.38V11.61H34.6257V10.98H35.6057V9.61L36.4157 9.38V10.98H37.8557V11.61H36.4157V14.29C36.4157 14.69 36.4823 14.9767 36.6157 15.15C36.7557 15.3167 36.9623 15.4 37.2357 15.4C37.3623 15.4 37.4757 15.39 37.5757 15.37C37.6757 15.3433 37.7657 15.3133 37.8457 15.28V15.96C37.7523 16 37.639 16.03 37.5057 16.05C37.379 16.0767 37.2523 16.09 37.1257 16.09ZM38.8418 16V10.98H39.6518V16H38.8418ZM38.7418 9.84V8.93H39.7418V9.84H38.7418ZM43.2846 16.09C42.8046 16.09 42.3846 15.9867 42.0246 15.78C41.6712 15.5667 41.3979 15.2667 41.2046 14.88C41.0112 14.4867 40.9146 14.0233 40.9146 13.49C40.9146 12.95 41.0112 12.4867 41.2046 12.1C41.3979 11.7133 41.6712 11.4167 42.0246 11.21C42.3846 10.9967 42.8046 10.89 43.2846 10.89C43.7712 10.89 44.1912 10.9967 44.5446 11.21C44.9046 11.4167 45.1812 11.7133 45.3746 12.1C45.5746 12.4867 45.6746 12.95 45.6746 13.49C45.6746 14.0233 45.5746 14.4867 45.3746 14.88C45.1812 15.2667 44.9046 15.5667 44.5446 15.78C44.1912 15.9867 43.7712 16.09 43.2846 16.09ZM43.2846 15.43C43.7646 15.43 44.1446 15.2667 44.4246 14.94C44.7046 14.6067 44.8446 14.1233 44.8446 13.49C44.8446 12.85 44.7012 12.3667 44.4146 12.04C44.1346 11.7067 43.7579 11.54 43.2846 11.54C42.8112 11.54 42.4346 11.7067 42.1546 12.04C41.8746 12.3667 41.7346 12.85 41.7346 13.49C41.7346 14.1233 41.8746 14.6067 42.1546 14.94C42.4346 15.2667 42.8112 15.43 43.2846 15.43ZM46.9375 16V12.14C46.9375 11.9533 46.9275 11.7633 46.9075 11.57C46.8941 11.37 46.8775 11.1733 46.8575 10.98H47.6375L47.7375 12.08H47.6175C47.7641 11.6933 47.9975 11.4 48.3175 11.2C48.6441 10.9933 49.0208 10.89 49.4475 10.89C50.0408 10.89 50.4875 11.05 50.7875 11.37C51.0941 11.6833 51.2475 12.18 51.2475 12.86V16H50.4375V12.91C50.4375 12.4367 50.3408 12.0933 50.1475 11.88C49.9608 11.66 49.6675 11.55 49.2675 11.55C48.8008 11.55 48.4308 11.6933 48.1575 11.98C47.8841 12.2667 47.7475 12.65 47.7475 13.13V16H46.9375ZM55.4043 16V8.64H56.2143V12.09H56.0843C56.2243 11.6967 56.4576 11.4 56.7843 11.2C57.1176 10.9933 57.5009 10.89 57.9343 10.89C58.5343 10.89 58.9809 11.0533 59.2743 11.38C59.5676 11.7 59.7143 12.1867 59.7143 12.84V16H58.9043V12.89C58.9043 12.4233 58.8109 12.0833 58.6243 11.87C58.4443 11.6567 58.1509 11.55 57.7443 11.55C57.2776 11.55 56.9043 11.6933 56.6243 11.98C56.3509 12.2667 56.2143 12.6433 56.2143 13.11V16H55.4043ZM63.4936 16.09C62.707 16.09 62.087 15.8633 61.6336 15.41C61.1803 14.95 60.9536 14.3133 60.9536 13.5C60.9536 12.9733 61.0536 12.5167 61.2536 12.13C61.4536 11.7367 61.7336 11.4333 62.0936 11.22C62.4536 11 62.867 10.89 63.3336 10.89C63.7936 10.89 64.1803 10.9867 64.4936 11.18C64.807 11.3733 65.047 11.65 65.2136 12.01C65.3803 12.3633 65.4636 12.7833 65.4636 13.27V13.57H61.5736V13.06H64.9336L64.7636 13.19C64.7636 12.6567 64.6436 12.24 64.4036 11.94C64.1636 11.64 63.807 11.49 63.3336 11.49C62.8336 11.49 62.4436 11.6667 62.1636 12.02C61.8836 12.3667 61.7436 12.8367 61.7436 13.43V13.52C61.7436 14.1467 61.897 14.6233 62.2036 14.95C62.517 15.27 62.9536 15.43 63.5136 15.43C63.8136 15.43 64.0936 15.3867 64.3536 15.3C64.6203 15.2067 64.8736 15.0567 65.1136 14.85L65.3936 15.42C65.1736 15.6333 64.8936 15.8 64.5536 15.92C64.2203 16.0333 63.867 16.09 63.4936 16.09ZM66.7031 16V8.64H67.5131V16H66.7031ZM69.0859 18.16V12.14C69.0859 11.9533 69.0759 11.7633 69.0559 11.57C69.0426 11.37 69.0259 11.1733 69.0059 10.98H69.7859L69.8959 12.17H69.7759C69.8826 11.7767 70.0992 11.4667 70.4259 11.24C70.7526 11.0067 71.1426 10.89 71.5959 10.89C72.0492 10.89 72.4392 10.9933 72.7659 11.2C73.0992 11.4067 73.3592 11.7033 73.5459 12.09C73.7326 12.4767 73.8259 12.9433 73.8259 13.49C73.8259 14.03 73.7326 14.4933 73.5459 14.88C73.3659 15.2667 73.1092 15.5667 72.7759 15.78C72.4426 15.9867 72.0492 16.09 71.5959 16.09C71.1492 16.09 70.7626 15.9767 70.4359 15.75C70.1092 15.5233 69.8926 15.2133 69.7859 14.82H69.8959V18.16H69.0859ZM71.4359 15.43C71.9159 15.43 72.2959 15.2667 72.5759 14.94C72.8626 14.6067 73.0059 14.1233 73.0059 13.49C73.0059 12.85 72.8626 12.3667 72.5759 12.04C72.2959 11.7067 71.9159 11.54 71.4359 11.54C70.9626 11.54 70.5826 11.7067 70.2959 12.04C70.0159 12.3667 69.8759 12.85 69.8759 13.49C69.8759 14.1233 70.0159 14.6067 70.2959 14.94C70.5826 15.2667 70.9626 15.43 71.4359 15.43Z" fill="black"/>
</svg>
