<svg width="35" height="35" viewBox="0 0 35 35" fill="none" xmlns="http://www.w3.org/2000/svg">
<path opacity="0.4" d="M16.6229 33.2517C18.8059 33.2517 20.9675 32.8216 22.9842 31.9861C25.001 31.1506 26.8335 29.9259 28.3771 28.3821C29.9207 26.8382 31.1451 25.0054 31.9805 22.9883C32.8159 20.9711 33.2458 18.8092 33.2458 16.6258C33.2458 14.4425 32.8159 12.2805 31.9805 10.2634C31.1451 8.24626 29.9207 6.41344 28.3771 4.86959C26.8335 3.32574 25.001 2.10109 22.9842 1.26557C20.9675 0.430039 18.8059 -3.25342e-08 16.6229 0C12.2142 6.57058e-08 7.98614 1.75164 4.86874 4.86959C1.75134 7.98754 0 12.2164 0 16.6258C0 21.0353 1.75134 25.2641 4.86874 28.3821C7.98614 31.5 12.2142 33.2517 16.6229 33.2517Z" fill="black"/>
<path d="M33.7708 35C33.4558 35 33.1408 34.8775 32.9134 34.65L29.6588 31.3948C29.4316 31.1637 29.3043 30.8526 29.3043 30.5285C29.3043 30.2044 29.4316 29.8933 29.6588 29.6622C30.1312 29.1897 30.9011 29.1897 31.391 29.6622L34.6456 32.9174C35.1181 33.3899 35.1181 34.16 34.6456 34.65C34.4007 34.8775 34.0857 35 33.7708 35Z" fill="black"/>
</svg>
