<svg width="32" height="35" viewBox="0 0 32 35" fill="none" xmlns="http://www.w3.org/2000/svg">
<path opacity="0.4" d="M28.1091 5.98137L19.0883 0.748219C17.361 -0.249406 14.6565 -0.249406 12.9291 0.748219L3.82116 6.01638C0.209379 8.46668 0 8.83423 0 12.7372V22.2409C0 26.1439 0.209379 26.5289 3.89095 29.0143L12.9117 34.2474C13.7841 34.755 14.9008 35 16 35C17.0992 35 18.2159 34.755 19.0709 34.2474L28.1788 28.9793C31.7906 26.5289 32 26.1614 32 22.2584V12.7372C32 8.83423 31.7906 8.46668 28.1091 5.98137Z" fill="black"/>
<path d="M15.9999 23.1843C17.5038 23.1843 18.9462 22.585 20.0097 21.5183C21.0731 20.4515 21.6706 19.0047 21.6706 17.4961C21.6706 15.9875 21.0731 14.5407 20.0097 13.4739C18.9462 12.4072 17.5038 11.8079 15.9999 11.8079C14.4959 11.8079 13.0536 12.4072 11.9901 13.4739C10.9267 14.5407 10.3292 15.9875 10.3292 17.4961C10.3292 19.0047 10.9267 20.4515 11.9901 21.5183C13.0536 22.585 14.4959 23.1843 15.9999 23.1843Z" fill="black"/>
</svg>
