<svg width="34" height="40" viewBox="0 0 34 40" fill="none" xmlns="http://www.w3.org/2000/svg">
<g filter="url(#filter0_d_379_7)">
<path fill-rule="evenodd" clip-rule="evenodd" d="M14.0165 7.87295L24.8668 15.9668C26.1631 16.9338 27 18.3717 27 20.0005C27 21.6292 26.163 23.065 24.8626 24.0255C24.8609 24.0268 24.8592 24.0281 24.8575 24.0294L14.0222 32.1121C12.7091 33.0916 11.0744 33.1702 9.82078 32.7837C8.64959 32.4226 7 31.3282 7 29.2477V10.7571C7 8.67702 8.64928 7.58333 9.81655 7.22053C11.0659 6.83221 12.6969 6.90307 14.0108 7.86875L14.0165 7.87295ZM23.6968 22.345C25.4344 21.0644 25.4344 18.9405 23.6968 17.6443L12.8521 9.55464C11.4285 8.50829 9 9.25791 9 10.7571V29.2477C9 30.747 11.4285 31.4966 12.8521 30.4346L23.6968 22.345Z" fill="black"/>
<path d="M14.6144 7.0714L14.6144 7.07138L14.6087 7.06718L14.603 7.06298L14.0122 7.86684L14.603 7.06298C12.9833 5.87251 11.0077 5.8031 9.51974 6.26559C8.16215 6.68755 6 8.0399 6 10.7571V29.2477C6 31.9655 8.16267 33.3189 9.52614 33.7393C11.0207 34.2001 13.0017 34.1209 14.6201 32.9136L25.4508 24.8343L25.4554 24.8309L25.4566 24.83L25.4568 24.8299C26.9735 23.7096 28 21.992 28 20.0005C28 18.0093 26.9741 16.2912 25.4647 15.1653L14.6144 7.0714ZM23.1035 21.54L23.1035 21.54L23.0988 21.5434L12.2542 29.6331C11.8461 29.9375 11.2288 30.0131 10.6869 29.846C10.1139 29.6694 10 29.3747 10 29.2477V10.7571C10 10.6301 10.114 10.335 10.689 10.1562C11.2321 9.98742 11.8499 10.0606 12.2575 10.3586C12.2583 10.3592 12.2591 10.3598 12.2599 10.3604L23.0988 18.4458C23.7529 18.9337 24 19.508 24 20.0005C24 20.4921 23.754 21.0606 23.1035 21.54Z" stroke="black" stroke-width="2"/>
</g>
<defs>
<filter id="filter0_d_379_7" x="0" y="0.000762939" width="34" height="39.9984" filterUnits="userSpaceOnUse" color-interpolation-filters="sRGB">
<feFlood flood-opacity="0" result="BackgroundImageFix"/>
<feColorMatrix in="SourceAlpha" type="matrix" values="0 0 0 0 0 0 0 0 0 0 0 0 0 0 0 0 0 0 127 0" result="hardAlpha"/>
<feOffset/>
<feGaussianBlur stdDeviation="2.5"/>
<feComposite in2="hardAlpha" operator="out"/>
<feColorMatrix type="matrix" values="0 0 0 0 0 0 0 0 0 0 0 0 0 0 0 0 0 0 0.25 0"/>
<feBlend mode="normal" in2="BackgroundImageFix" result="effect1_dropShadow_379_7"/>
<feBlend mode="normal" in="SourceGraphic" in2="effect1_dropShadow_379_7" result="shape"/>
</filter>
</defs>
</svg>
